<svg xmlns="http://www.w3.org/2000/svg" width="1200" height="630" viewBox="0 0 1200 630">
  <defs>
    <radialGradient id="sky" cx="75%" cy="28%" r="75%">
      <stop offset="0" stop-color="#28455b"/>
      <stop offset="0.45" stop-color="#0b1829"/>
      <stop offset="1" stop-color="#07101e"/>
    </radialGradient>
    <radialGradient id="planet" cx="35%" cy="30%">
      <stop offset="0" stop-color="#ffe2b4"/>
      <stop offset="0.25" stop-color="#f17d65"/>
      <stop offset="0.7" stop-color="#303a55"/>
      <stop offset="1" stop-color="#101d30"/>
    </radialGradient>
  </defs>
  <rect width="1200" height="630" fill="url(#sky)"/>
  <g fill="#8ee9e5" opacity=".75">
    <circle cx="90" cy="92" r="2"/><circle cx="220" cy="480" r="2"/><circle cx="470" cy="78" r="1.5"/><circle cx="1080" cy="510" r="2"/><circle cx="990" cy="95" r="1.5"/><circle cx="690" cy="540" r="1.5"/>
  </g>
  <circle cx="925" cy="300" r="190" fill="url(#planet)"/>
  <ellipse cx="925" cy="300" rx="270" ry="78" fill="none" stroke="#f2c56b" stroke-width="2" opacity=".7" transform="rotate(-12 925 300)"/>
  <path d="M82 92l7 22 22 7-22 7-7 22-7-22-22-7 22-7 7-22z" fill="#f2c56b"/>
  <text x="82" y="245" fill="#8ee9e5" font-family="monospace" font-size="20" letter-spacing="5">UNOFFICIAL WISH OBSERVATORY</text>
  <text x="82" y="340" fill="#f3f0e6" font-family="Georgia,serif" font-size="76">Astral Wish Lab</text>
  <text x="82" y="405" fill="#aeb9c7" font-family="sans-serif" font-size="28">Simulate pulls. Map pity. Plan primogems.</text>
  <rect x="82" y="470" width="295" height="52" fill="#f2c56b"/>
  <text x="110" y="503" fill="#07101e" font-family="monospace" font-size="17" letter-spacing="2">TURN HOPE INTO A PLAN</text>
</svg>
